<svg width="133" height="133" viewBox="0 0 133 133" fill="none" xmlns="http://www.w3.org/2000/svg">
<path d="M6.92725 66.5C6.92725 33.5992 33.5993 6.92712 66.5002 6.92712C99.401 6.92712 126.073 33.5992 126.073 66.5C126.073 99.4009 99.401 126.073 66.5002 126.073C33.5993 126.073 6.92725 99.4009 6.92725 66.5ZM66.5002 15.2396C52.9051 15.2396 39.8668 20.6403 30.2536 30.2535C20.6404 39.8666 15.2397 52.9049 15.2397 66.5C15.2397 80.0952 20.6404 93.1334 30.2536 102.747C39.8668 112.36 52.9051 117.76 66.5002 117.76C80.0953 117.76 93.1336 112.36 102.747 102.747C112.36 93.1334 117.761 80.0952 117.761 66.5C117.761 52.9049 112.36 39.8666 102.747 30.2535C93.1336 20.6403 80.0953 15.2396 66.5002 15.2396Z" fill="black"/>
<path opacity="0.5" d="M66.4999 42.9479C59.4066 42.9479 54.0312 48.4896 54.0312 55.4167C54.0312 62.3438 59.4066 67.8854 66.4999 67.8854C73.5933 67.8854 78.9687 62.3438 78.9687 55.4167C78.9687 48.4896 73.5933 42.9479 66.4999 42.9479ZM45.7187 55.4167C45.6965 52.6815 46.2189 49.9692 47.2554 47.4379C48.292 44.9066 49.8218 42.6069 51.756 40.6728C53.6901 38.7386 55.9899 37.2087 58.5212 36.1722C61.0525 35.1357 63.7647 34.6133 66.4999 34.6354C69.2351 34.6133 71.9474 35.1357 74.4787 36.1722C77.01 37.2087 79.3097 38.7386 81.2439 40.6728C83.178 42.6069 84.7079 44.9066 85.7444 47.4379C86.7809 49.9692 87.3033 52.6815 87.2812 55.4167C87.3033 58.1519 86.7809 60.8642 85.7444 63.3955C84.7079 65.9268 83.178 68.2265 81.2439 70.1606C79.3097 72.0948 77.01 73.6247 74.4787 74.6612C71.9474 75.6977 69.2351 76.2201 66.4999 76.1979C63.7647 76.2201 61.0525 75.6977 58.5212 74.6612C55.9899 73.6247 53.6901 72.0948 51.756 70.1606C49.8218 68.2265 48.292 65.9268 47.2554 63.3955C46.2189 60.8642 45.6965 58.1519 45.7187 55.4167ZM81.4901 87.8964C81.0621 88.0131 80.6572 88.2025 80.2931 88.4561C77.5168 90.3292 72.6789 92.8229 66.4999 92.8229C60.321 92.8229 55.4831 90.3292 52.7067 88.4561C52.3423 88.2044 51.9374 88.017 51.5097 87.9019C51.3247 87.8448 51.1279 87.8372 50.9389 87.8798C47.1041 89.0768 43.0753 91.0995 40.0108 94.2915C37.0293 97.3948 34.7794 101.773 34.6353 108.157C34.623 108.703 34.5032 109.241 34.2829 109.74C34.0626 110.24 33.7461 110.691 33.3514 111.068C32.9567 111.445 32.4916 111.741 31.9826 111.938C31.4736 112.136 30.9307 112.231 30.3849 112.219C29.8391 112.206 29.3011 112.087 28.8015 111.866C28.302 111.646 27.8508 111.33 27.4736 110.935C27.0964 110.54 26.8006 110.075 26.6032 109.566C26.4057 109.057 26.3105 108.514 26.3228 107.968C26.5168 99.4896 29.6091 93.1166 34.0147 88.5337C38.3483 84.0283 43.768 81.4071 48.4673 79.9441C51.9364 78.8635 55.206 80.1104 57.3562 81.5678C59.3512 82.9089 62.5653 84.5104 66.4999 84.5104C70.4345 84.5104 73.6487 82.9034 75.6437 81.5678C77.7938 80.1159 81.0634 78.8635 84.5325 79.9441C89.2374 81.4071 94.6516 84.0283 98.9852 88.5337C103.391 93.1222 106.483 99.484 106.677 107.968C106.689 108.514 106.594 109.057 106.397 109.566C106.199 110.075 105.903 110.54 105.526 110.935C105.149 111.33 104.698 111.646 104.198 111.866C103.699 112.087 103.161 112.206 102.615 112.219C102.069 112.231 101.526 112.136 101.017 111.938C100.508 111.741 100.043 111.445 99.6485 111.068C99.2538 110.691 98.9372 110.24 98.7169 109.74C98.4966 109.241 98.3769 108.703 98.3645 108.157C98.2204 101.778 95.9705 97.3948 92.9891 94.2915C89.9246 91.0995 85.8958 89.0768 82.0609 87.8798C81.8725 87.8354 81.6757 87.8411 81.4901 87.8964Z" fill="black"/>
</svg>
