<svg width="31" height="31" viewBox="0 0 31 31" fill="none" xmlns="http://www.w3.org/2000/svg">
<path opacity="0.987" fill-rule="evenodd" clip-rule="evenodd" d="M13.9674 2.05569C15.3721 1.89875 16.2033 1.89875 17.7126 2.05569C20.3843 2.45113 22.861 3.68607 24.7845 5.58194C23.4847 6.81058 22.2019 8.05716 20.9366 9.32132C18.5134 7.26757 15.8087 6.79352 12.8224 7.89919C10.6317 8.90669 9.10623 10.5394 8.24598 12.7972C6.84021 11.7506 5.45275 10.6797 4.08423 9.58482C3.98912 9.53476 3.8805 9.51642 3.77423 9.5325C5.94811 5.34105 9.34519 2.84813 13.9655 2.05375" fill="#F44336"/>
<path opacity="0.997" fill-rule="evenodd" clip-rule="evenodd" d="M3.77038 9.53251C3.88017 9.51572 3.98415 9.53316 4.08231 9.58483C5.45083 10.6797 6.83829 11.7506 8.24406 12.7972C8.02285 13.6769 7.8834 14.5752 7.8275 15.4806C7.87529 16.3564 8.01415 17.216 8.24406 18.0595L3.875 21.5373C1.97238 17.5615 1.9375 13.5599 3.77038 9.53251Z" fill="#FFC107"/>
<path opacity="0.999" fill-rule="evenodd" clip-rule="evenodd" d="M24.5772 25.7494C23.2168 24.5496 21.7926 23.4242 20.3108 22.3781C21.7962 21.3293 22.6978 19.8904 23.0156 18.0614H15.7364V13.0064C19.9343 12.9716 24.1303 13.0071 28.3243 13.113C29.12 17.4336 28.201 21.3293 25.5673 24.8C25.2541 25.1329 24.9224 25.4498 24.5772 25.7494Z" fill="#448AFF"/>
<path opacity="0.993" fill-rule="evenodd" clip-rule="evenodd" d="M8.24406 18.0614C9.83281 22.01 12.7455 23.8532 16.9822 23.591C18.1715 23.4533 19.3117 23.0378 20.3108 22.3781C21.7936 23.427 23.2158 24.5507 24.5772 25.7494C22.4201 27.6878 19.6697 28.8379 16.7749 29.0121C16.1172 29.0647 15.4563 29.0647 14.7986 29.0121C9.86704 28.4309 6.22583 25.9392 3.875 21.5372L8.24406 18.0614Z" fill="#43A047"/>
</svg>
