<svg width="44" height="45" viewBox="0 0 44 45" fill="none" xmlns="http://www.w3.org/2000/svg">
<g filter="url(#filter0_d_221_535)">
<path d="M37.375 17.5802H37.067L33.8767 8.2475L6.4945 17.5802L5.875 17.575M5 17.582H5.875L25.3805 2L30.3102 8.9125" stroke="black" stroke-width="2" stroke-linecap="square"/>
<path d="M26 26.325C26 27.4853 25.5391 28.5981 24.7186 29.4185C23.8981 30.239 22.7853 30.7 21.625 30.7C20.4647 30.7 19.3519 30.239 18.5314 29.4185C17.7109 28.5981 17.25 27.4853 17.25 26.325C17.25 25.1646 17.7109 24.0518 18.5314 23.2314C19.3519 22.4109 20.4647 21.95 21.625 21.95C22.7853 21.95 23.8981 22.4109 24.7186 23.2314C25.5391 24.0518 26 25.1646 26 26.325Z" stroke="black" stroke-width="2" stroke-linecap="square"/>
<path d="M38.25 17.575V35.075H5V17.575H38.25Z" stroke="black" stroke-width="2" stroke-linecap="square"/>
<path d="M5 17.575H8.5C8.5 18.5032 8.13125 19.3934 7.47487 20.0498C6.8185 20.7062 5.92826 21.075 5 21.075V17.575ZM38.25 17.575H34.75C34.75 18.5032 35.1187 19.3934 35.7751 20.0498C36.4315 20.7062 37.3217 21.075 38.25 21.075V17.575ZM5 35.075H8.5035C8.50396 34.6147 8.41365 34.1589 8.23775 33.7337C8.06185 33.3084 7.8038 32.922 7.47838 32.5966C7.15295 32.2712 6.76655 32.0131 6.34128 31.8372C5.916 31.6613 5.46022 31.571 5 31.5714V35.075ZM38.25 35.075H34.75C34.75 34.1467 35.1187 33.2565 35.7751 32.6001C36.4315 31.9437 37.3217 31.575 38.25 31.575V35.075Z" stroke="black" stroke-width="2" stroke-linecap="square"/>
</g>
<defs>
<filter id="filter0_d_221_535" x="0" y="0.55957" width="43.25" height="43.5154" filterUnits="userSpaceOnUse" color-interpolation-filters="sRGB">
<feFlood flood-opacity="0" result="BackgroundImageFix"/>
<feColorMatrix in="SourceAlpha" type="matrix" values="0 0 0 0 0 0 0 0 0 0 0 0 0 0 0 0 0 0 127 0" result="hardAlpha"/>
<feOffset dy="4"/>
<feGaussianBlur stdDeviation="2"/>
<feComposite in2="hardAlpha" operator="out"/>
<feColorMatrix type="matrix" values="0 0 0 0 0 0 0 0 0 0 0 0 0 0 0 0 0 0 0.25 0"/>
<feBlend mode="normal" in2="BackgroundImageFix" result="effect1_dropShadow_221_535"/>
<feBlend mode="normal" in="SourceGraphic" in2="effect1_dropShadow_221_535" result="shape"/>
</filter>
</defs>
</svg>
